{"glyphs":{"!":{"ha":1389,"x_min":7,"x_max":986,"o":"m 50 96 l 887 932 l 986 975 l 944 876 l 106 39 l 7 -3 l 50 96 z "}," ":{"ha":694,"x_min":0,"x_max":0,"o":""},"/":{"ha":1035,"x_min":7,"x_max":986,"o":"m 50 96 l 887 932 l 986 975 l 944 876 l 106 39 l 7 -3 l 50 96 z "},"z":{"ha":1068,"x_min":7,"x_max":985,"o":"m 463 865 l 54 1276 l 7 1384 l 102 1337 l 463 975 l 463 1284 l 504 1384 l 544 1284 l 544 975 l 892 1337 l 985 1384 l 939 1276 l 544 865 l 544 100 l 504 0 l 463 100 l 463 865 z "},"a":{"ha":519,"x_min":6,"x_max":462,"o":"m 6 97 q 6 727 6 507 q 6 1064 6 947 q 6 1240 6 1181 q 6 1385 6 1298 l 416 962 l 462 864 l 371 903 l 84 1206 l 84 917 l 416 568 l 462 469 l 371 509 l 84 812 l 84 97 l 45 0 l 6 97 z "},"\\":{"ha":1035,"x_min":7,"x_max":986,"o":"m 887 39 l 50 876 l 7 975 l 106 932 l 943 95 l 986 -3 l 887 39 z "},"b":{"ha":467,"x_min":5,"x_max":412,"o":"m 6 0 l 5 1382 l 412 982 l 128 691 l 412 400 l 6 0 m 307 400 l 85 629 l 85 171 l 307 400 m 307 982 l 85 1211 l 85 753 l 307 982 z "},":":{"ha":106,"x_min":8,"x_max":102,"o":"m 8 50 l 55 96 l 102 50 l 55 3 l 8 50 m 8 292 l 55 339 l 102 292 l 55 245 l 8 292 z "},",":{"ha":142,"x_min":8,"x_max":102,"o":"m 8 50 l 55 96 l 102 50 l 31 -85 l 49 24 l 8 50 z "},"d":{"ha":1394,"x_min":3,"x_max":1296,"o":"m 593 692 l 81 1204 l 81 179 l 593 692 m 1296 1382 l 1296 1 l 650 641 l 3 0 l 3 1383 l 650 743 l 1296 1382 m 707 692 l 1220 179 l 1220 1204 l 707 692 z "},"D":{"ha":1394,"x_min":3,"x_max":1296,"o":"m 593 692 l 81 1204 l 81 179 l 593 692 m 1296 1 l 650 641 l 3 0 l 3 1383 l 650 743 l 1296 1383 l 1296 1 m 707 692 l 1220 179 l 1220 1204 l 707 692 z "},"e":{"ha":880,"x_min":5,"x_max":806,"o":"m 406 986 l 806 1386 l 805 97 l 766 0 l 727 97 l 727 1203 l 406 875 l 84 1203 l 84 97 l 45 0 l 6 97 l 5 1385 l 406 986 z "},"y":{"ha":977,"x_min":7,"x_max":898,"o":"m 482 1212 l 482 0 l 18 458 l 7 531 l 71 510 l 409 170 l 408 1384 l 873 926 l 898 855 l 827 870 l 482 1212 z "},"f":{"ha":833,"x_min":2,"x_max":762,"o":"m 2 110 q 2 415 2 317 q 2 545 2 513 q 2 565 2 577 q 2 540 2 553 q 2 535 2 527 q 2 614 2 543 q 2 844 2 686 q 3 1289 2 1002 l 43 1388 l 83 1289 l 83 1063 l 340 1334 l 440 1381 l 387 1266 l 83 949 l 83 741 l 661 1334 l 762 1381 l 708 1266 l 83 627 l 83 110 l 43 10 l 2 110 z "},"g":{"ha":884,"x_min":3,"x_max":810,"o":"m 454 693 l 787 121 l 810 0 l 716 80 l 406 612 l 97 80 l 3 0 l 26 120 l 359 693 l 26 1266 l 3 1387 l 97 1307 l 406 774 l 716 1307 l 810 1387 l 787 1266 l 454 693 z "},"G":{"ha":884,"x_min":3,"x_max":810,"o":"m 454 693 l 787 120 l 810 0 l 716 80 l 406 612 l 97 80 l 3 0 l 26 120 l 359 693 l 26 1266 l 3 1387 l 97 1307 l 406 774 l 716 1307 l 810 1387 l 787 1266 l 454 693 z "},"h":{"ha":761,"x_min":6,"x_max":692,"o":"m 692 1284 l 692 100 l 652 0 l 612 100 l 612 359 l 86 913 l 86 100 l 46 0 l 6 100 l 6 1284 l 46 1384 l 86 1284 l 86 1027 l 612 474 l 612 1284 l 652 1384 l 692 1284 z "},"-":{"ha":616,"x_min":7,"x_max":587,"o":"m 106 732 l 487 732 l 587 692 l 487 652 l 106 652 l 7 692 l 106 732 z "},"q":{"ha":1068,"x_min":5,"x_max":985,"o":"m 5 691 l 495 1181 l 985 691 l 495 201 l 5 691 m 111 691 l 495 307 l 880 691 l 495 1075 l 111 691 z "},"I":{"ha":149,"x_min":6,"x_max":86,"o":"m 86 100 l 46 0 l 6 100 l 6 1284 l 46 1384 l 86 1284 l 86 100 z "},"i":{"ha":149,"x_min":6,"x_max":86,"o":"m 86 1284 l 86 100 l 46 0 l 6 100 l 6 1284 l 46 1384 l 86 1284 z "},"j":{"ha":1054,"x_min":-7,"x_max":972,"o":"m -7 893 l 434 1336 l 535 1383 l 495 1289 l 100 893 l 495 498 l 536 404 l 434 451 l -7 893 m 972 486 l 529 44 l 428 -2 l 469 92 l 864 486 l 469 882 l 429 976 l 530 928 l 972 486 z "},"c":{"ha":596,"x_min":-7,"x_max":536,"o":"m -7 692 l 434 1135 l 535 1181 l 495 1087 l 100 692 l 495 297 l 536 203 l 434 250 l -7 692 z "},"k":{"ha":596,"x_min":-7,"x_max":536,"o":"m -7 692 l 434 1135 l 535 1181 l 495 1087 l 100 692 l 495 297 l 536 203 l 434 250 l -7 692 z "},"l":{"ha":589,"x_min":6,"x_max":529,"o":"m 476 915 l 529 817 l 427 855 l 84 1202 l 84 97 l 45 0 l 6 97 l 6 1387 l 476 915 z "},"m":{"ha":875,"x_min":8,"x_max":801,"o":"m 89 668 l 352 931 l 89 1195 l 89 668 m 89 555 l 89 103 l 48 3 l 8 103 q 8 740 8 421 q 8 1377 9 1059 q 207 1182 104 1278 q 409 988 309 1087 l 801 1377 q 801 740 801 1059 q 801 103 801 421 l 761 3 l 721 103 l 721 562 l 409 875 l 89 555 m 466 931 l 721 676 l 721 1187 l 466 931 z "},"n":{"ha":718,"x_min":7,"x_max":652,"o":"m 290 788 l 290 1283 l 330 1383 l 370 1283 l 370 707 l 610 467 l 652 369 l 553 411 l 370 594 l 370 99 l 330 -1 l 290 99 l 290 675 l 50 914 l 7 1013 l 106 971 l 290 788 z "},"o":{"ha":1072,"x_min":10,"x_max":989,"o":"m 443 490 l 25 907 l 443 1325 l 499 1382 l 974 908 l 556 490 l 947 99 l 989 0 l 890 42 l 500 433 l 109 42 l 10 0 l 52 99 l 443 490 m 861 907 l 499 1268 l 138 907 l 500 546 l 861 907 z "},".":{"ha":106,"x_min":8,"x_max":102,"o":"m 8 50 l 55 96 l 102 50 l 55 3 l 8 50 z "},"p":{"ha":671,"x_min":5,"x_max":608,"o":"m 282 279 l 5 0 l 5 1384 l 282 1106 l 513 1337 l 608 1384 l 560 1276 l 282 998 l 86 1194 l 86 197 l 282 393 l 560 109 l 608 0 l 513 47 l 282 279 z "},"r":{"ha":581,"x_min":5,"x_max":522,"o":"m 83 578 l 83 97 l 45 0 l 6 97 l 5 1394 l 415 989 l 97 669 l 469 294 l 522 196 l 418 242 l 83 578 m 311 989 l 83 1218 l 83 762 l 311 989 z "},"s":{"ha":640,"x_min":6,"x_max":577,"o":"m 552 488 l 105 42 l 6 0 l 48 99 l 437 488 l 31 895 l 478 1342 l 577 1384 l 535 1285 l 144 895 l 552 488 z "},"t":{"ha":1069,"x_min":8,"x_max":987,"o":"m 498 1384 l 940 942 l 987 848 l 886 881 l 538 1236 l 538 100 l 498 0 l 457 100 l 457 1236 l 109 881 l 8 847 l 56 942 l 498 1384 l 498 1384 z "},"x":{"ha":450,"x_min":6,"x_max":397,"o":"m 6 100 q 6 327 6 156 q 6 691 6 498 q 6 1056 6 885 q 6 1284 6 1227 l 39 1384 l 86 1284 l 86 1003 l 397 692 l 86 382 l 86 100 l 39 0 l 6 100 m 289 692 l 86 895 l 86 490 l 289 692 z "},"u":{"ha":623,"x_min":6,"x_max":561,"o":"m 7 1384 l 561 823 l 561 96 l 522 0 l 484 96 l 484 789 l 83 1196 l 83 96 l 45 0 l 6 96 l 7 1384 z "},"v":{"ha":467,"x_min":6,"x_max":413,"o":"m 6 1390 l 413 980 l 83 643 l 83 95 l 45 0 l 6 95 l 6 1390 m 307 980 l 83 1207 l 83 753 l 307 980 z "},"w":{"ha":467,"x_min":6,"x_max":413,"o":"m 6 1390 l 413 980 l 83 643 l 83 95 l 45 0 l 6 95 l 6 1390 m 307 980 l 83 1207 l 83 753 l 307 980 z "},"®":{"ha":1852,"x_min":7,"x_max":1764,"o":"m 886 1 q 764 26 823 1 q 684 113 706 52 q 740 360 712 237 q 797 608 768 484 q 772 711 802 681 q 643 743 708 727 q 513 775 578 759 q 307 722 379 726 q 288 744 287 726 q 233 720 258 728 q 197 728 208 713 q 218 766 180 736 q 109 741 119 715 q 112 764 97 749 q 152 796 127 779 q 54 797 69 768 q 73 826 37 805 q 164 871 109 846 q 26 859 56 835 q 48 887 23 875 q 109 911 74 900 q 12 935 22 903 q 47 965 7 956 q 146 979 86 974 q 81 1001 81 982 q 100 1020 63 1002 q 204 1065 136 1038 q 358 1126 271 1093 q 527 1192 444 1159 q 630 1186 573 1204 q 751 1138 688 1168 q 805 1193 789 1148 q 821 1280 805 1249 q 862 1333 838 1315 q 873 1359 867 1346 q 886 1387 880 1373 q 898 1359 892 1373 q 909 1333 903 1346 q 950 1280 932 1315 q 966 1193 966 1247 q 1021 1138 983 1147 q 1141 1186 1084 1168 q 1244 1192 1198 1204 q 1413 1126 1326 1159 q 1567 1065 1499 1093 q 1671 1020 1634 1038 q 1690 1001 1708 1002 q 1626 979 1690 982 q 1724 965 1685 974 q 1760 935 1764 956 q 1664 911 1749 903 q 1723 887 1698 900 q 1745 859 1748 875 q 1608 871 1716 835 q 1698 826 1662 846 q 1718 797 1735 805 q 1619 796 1702 769 q 1658 764 1643 779 q 1662 741 1674 749 q 1554 766 1652 715 q 1575 728 1591 736 q 1538 720 1564 713 q 1483 744 1513 728 q 1464 722 1484 726 q 1258 775 1392 726 q 1128 743 1193 759 q 999 711 1063 727 q 975 608 968 680 q 1031 360 1003 484 q 1088 113 1059 237 q 1006 26 1065 52 q 886 1 947 1 m 1578 995 q 1552 1044 1577 1023 q 1518 1058 1535 1050 q 1484 1072 1501 1065 q 1440 1036 1468 1042 q 1291 1033 1369 1014 q 1267 1054 1274 1042 q 1052 953 1159 970 q 1274 1021 1118 921 q 1284 956 1281 978 q 1195 883 1243 917 q 1084 829 1147 850 q 1179 846 1133 831 q 1271 899 1226 861 q 1330 870 1294 886 q 1330 870 1330 870 q 1330 870 1330 870 q 1524 903 1446 852 q 1578 995 1572 944 m 1527 1000 q 1362 950 1438 950 q 1327 964 1329 957 q 1335 979 1325 971 q 1524 1024 1413 981 q 1527 1000 1544 1019 m 974 31 q 1038 62 1015 37 q 1073 117 1061 87 q 1026 306 1050 190 q 973 553 1001 421 q 961 530 969 545 q 962 441 946 506 q 993 318 979 377 q 958 359 972 365 q 942 300 947 346 q 952 162 946 233 q 974 31 958 92 m 193 995 q 248 903 199 944 q 441 870 325 852 q 441 870 441 870 q 441 870 441 870 q 501 899 475 886 q 592 846 545 861 q 687 829 638 831 q 576 883 624 850 q 487 956 528 917 q 497 1021 490 978 q 720 953 653 921 q 505 1054 613 970 q 481 1033 498 1042 q 332 1036 402 1014 q 288 1072 304 1042 q 253 1058 271 1065 q 220 1044 236 1050 q 193 995 194 1022 m 244 1000 q 248 1024 228 1019 q 437 979 359 981 q 444 964 446 971 q 410 950 442 957 q 244 1000 332 950 m 798 31 q 818 162 812 92 q 829 300 825 233 q 813 359 823 346 q 779 318 798 365 q 808 441 792 377 q 810 530 825 506 q 798 553 810 530 q 746 306 770 421 q 699 117 721 190 q 733 62 710 87 q 798 31 757 37 z "},"©":{"ha":1459,"x_min":15,"x_max":1390,"o":"m 16 797 l 104 797 l 104 774 l 49 774 l 49 757 l 100 757 l 100 736 l 49 736 l 49 715 l 106 715 l 106 690 l 16 690 l 16 797 m 122 797 l 151 797 l 151 690 l 122 690 l 122 797 m 251 797 l 251 690 l 223 690 l 223 701 q 213 692 216 693 q 199 688 206 688 q 175 701 183 688 q 167 729 167 713 q 176 759 167 749 q 199 769 184 769 q 212 767 205 769 q 222 760 218 763 l 222 797 l 251 797 m 222 729 q 218 742 222 738 q 208 747 213 747 q 199 743 203 747 q 196 728 196 738 q 199 714 196 718 q 208 710 202 710 q 218 714 214 710 q 222 729 222 718 m 354 722 l 294 722 q 298 710 294 717 q 309 705 302 705 q 317 707 313 705 q 323 713 319 708 l 352 710 q 336 693 345 697 q 309 688 325 688 q 285 692 294 688 q 271 706 275 696 q 265 728 265 717 q 276 758 265 747 q 308 769 288 769 q 334 764 325 769 q 349 750 343 758 q 354 724 354 739 l 354 722 m 324 736 q 319 748 323 745 q 309 751 315 751 q 298 746 301 751 q 294 736 294 741 l 324 736 m 367 768 l 394 768 l 394 755 q 402 766 399 764 q 412 769 408 769 q 427 765 419 769 l 418 744 q 410 746 412 746 q 401 741 404 746 q 396 716 396 732 l 396 690 l 367 690 l 367 768 m 484 797 l 564 797 l 564 774 l 517 774 l 517 755 l 557 755 l 557 734 l 517 734 l 517 690 l 484 690 l 484 797 m 661 690 l 633 690 l 633 703 q 621 692 627 693 q 606 688 614 688 q 587 696 594 688 q 581 718 581 702 l 581 768 l 610 768 l 610 725 q 612 715 610 716 q 619 711 614 711 q 628 715 625 711 q 632 730 632 720 l 632 768 l 661 768 l 661 690 m 714 797 l 714 768 l 730 768 l 730 746 l 714 746 l 714 718 q 715 710 714 713 q 720 708 716 708 q 729 710 724 708 l 732 690 q 711 688 721 688 q 695 691 699 688 q 688 700 689 694 q 685 719 685 705 l 685 746 l 674 746 l 674 768 l 685 768 l 685 781 l 714 797 m 745 797 l 774 797 l 774 758 q 785 766 777 761 q 800 769 793 769 q 818 762 811 769 q 825 739 825 754 l 825 690 l 796 690 l 796 732 q 793 743 796 739 q 786 746 789 746 q 777 742 779 746 q 774 727 774 736 l 774 690 l 745 690 l 745 797 m 870 743 l 842 745 q 846 757 843 751 q 855 764 848 761 q 866 768 859 766 q 881 769 870 769 q 902 768 897 769 q 915 762 908 766 q 922 752 919 759 q 924 741 924 746 l 924 707 q 924 702 924 704 q 924 698 924 699 q 927 690 924 696 l 899 690 q 897 694 897 696 q 896 699 896 696 q 884 692 888 693 q 867 688 876 688 q 846 694 853 688 q 840 710 840 701 q 844 725 840 720 q 863 733 849 730 q 884 739 883 738 q 895 742 888 739 q 892 749 895 747 q 884 751 890 751 q 874 749 878 751 q 870 743 873 748 m 895 727 q 882 723 888 724 q 871 718 873 720 q 869 713 869 715 q 871 707 869 709 q 878 705 873 705 q 886 707 882 705 q 892 713 891 709 q 895 722 895 719 l 895 727 m 941 768 l 968 768 l 968 755 q 977 766 974 764 q 987 769 982 769 q 1002 765 994 769 l 992 744 q 984 746 987 746 q 975 741 977 746 q 970 716 970 732 l 970 690 l 941 690 l 941 768 m 1012 797 l 1041 797 l 1041 742 l 1063 768 l 1100 768 l 1072 741 l 1101 690 l 1068 690 l 1052 721 l 1041 710 l 1041 690 l 1012 690 l 1012 797 m 1224 798 l 1224 690 l 1194 690 l 1194 762 q 1180 752 1190 758 q 1163 746 1172 749 l 1163 770 q 1186 781 1178 774 q 1200 798 1193 786 l 1224 798 m 1258 720 l 1289 720 l 1289 690 l 1258 690 l 1258 720 m 1372 798 l 1372 690 l 1342 690 l 1342 762 q 1328 752 1342 762 q 1311 746 1320 749 l 1311 770 q 1334 781 1326 774 q 1348 798 1341 786 l 1372 798 m 90 569 l 118 560 q 109 540 115 549 q 94 528 102 532 q 69 524 84 524 q 41 528 54 524 q 23 546 30 534 q 15 578 15 558 q 28 619 15 604 q 68 633 43 633 q 100 625 88 633 q 117 600 111 616 l 87 595 q 84 601 88 593 q 78 606 81 605 q 69 608 74 608 q 52 600 57 608 q 47 578 47 591 q 53 555 47 561 q 68 549 58 549 q 82 553 78 549 q 90 569 87 559 m 128 564 q 140 593 128 581 q 172 604 151 604 q 206 591 195 604 q 216 564 216 578 q 204 535 216 545 q 172 524 191 524 q 142 533 153 524 q 128 564 128 544 m 157 564 q 161 549 157 553 q 172 543 165 543 q 182 548 178 543 q 186 564 186 553 q 182 579 186 575 q 172 585 178 585 q 161 579 165 585 q 157 564 157 574 m 230 496 l 230 602 l 257 602 l 257 591 q 267 601 260 596 q 282 604 275 604 q 305 592 297 604 q 314 563 314 581 q 305 534 314 543 q 281 524 296 524 q 269 526 274 524 q 259 532 264 527 l 259 496 l 230 496 m 259 564 q 262 550 259 554 q 273 546 267 546 q 281 550 278 546 q 285 564 285 553 q 281 578 285 573 q 272 583 277 583 q 262 578 267 583 q 259 564 259 572 l 259 564 m 318 602 l 349 602 l 364 551 l 379 602 l 408 602 l 378 519 q 366 501 372 505 q 343 494 359 494 q 323 496 332 494 l 321 515 q 336 514 330 514 q 344 516 342 514 q 350 525 348 519 l 318 602 m 416 602 l 443 602 l 443 589 q 451 601 448 599 q 462 604 455 604 q 476 600 467 604 l 467 579 q 458 581 461 581 q 450 576 452 581 q 445 551 445 568 l 445 526 l 416 526 l 416 602 m 482 631 l 511 631 l 511 611 l 482 611 l 482 631 m 482 602 l 511 602 l 511 526 l 482 526 l 482 602 m 585 602 l 612 602 l 612 530 l 612 526 q 608 513 612 523 q 600 502 605 506 q 587 496 595 498 q 569 494 577 494 q 537 501 545 494 q 529 519 529 507 q 529 520 529 519 q 529 524 529 522 l 558 520 q 562 515 559 515 q 569 513 566 513 q 578 516 576 513 q 582 528 582 519 l 582 539 q 573 532 578 534 q 559 529 565 529 q 534 542 543 529 q 527 568 527 551 q 536 595 527 583 q 558 604 544 604 q 573 601 567 604 q 584 591 577 599 l 585 602 m 556 565 q 560 552 556 556 q 569 549 564 549 q 578 552 574 549 q 582 565 582 556 q 578 578 582 573 q 569 583 573 583 q 560 579 563 583 q 556 565 556 575 m 629 631 l 659 631 l 659 592 q 670 601 663 598 q 684 604 677 604 q 703 597 696 604 q 710 574 710 589 l 710 526 l 681 526 l 681 568 q 678 578 681 575 q 671 581 675 581 q 661 577 664 581 q 659 562 659 572 l 659 526 l 629 526 l 629 631 m 763 631 l 763 602 l 779 602 l 779 581 l 763 581 l 763 552 q 763 547 763 549 q 764 545 764 545 q 769 543 766 543 q 778 545 771 543 l 781 526 q 760 524 770 524 q 744 526 748 524 q 736 534 739 528 q 734 553 734 540 l 734 581 l 723 581 l 723 602 l 734 602 l 734 616 l 763 631 m 948 578 q 941 551 948 563 q 920 531 933 538 q 892 524 907 524 q 865 530 879 524 q 846 551 851 540 q 838 578 838 563 q 845 606 838 592 q 865 626 852 618 q 892 633 878 633 q 920 626 907 633 q 941 606 932 618 q 948 578 948 592 m 937 578 q 924 610 937 597 q 893 623 911 623 q 861 610 874 623 q 848 578 848 595 q 861 547 848 560 q 893 534 874 534 q 924 547 911 534 q 937 578 937 559 m 905 572 l 920 568 q 913 555 918 560 q 893 547 905 547 q 872 556 881 547 q 864 578 864 564 q 872 601 864 591 q 893 610 881 610 q 910 604 904 610 q 920 589 917 598 l 905 587 q 901 596 904 591 q 892 599 896 599 q 883 594 888 599 q 880 579 880 588 q 882 564 880 568 q 892 558 886 558 q 900 562 897 558 q 905 572 904 564 m 1074 633 l 1074 526 l 1044 526 l 1044 596 q 1030 587 1036 590 q 1013 581 1022 584 l 1013 605 q 1036 616 1027 609 q 1050 633 1044 623 l 1074 633 m 1107 549 l 1137 553 q 1140 544 1137 547 q 1147 541 1143 541 q 1158 549 1153 541 q 1162 572 1161 555 q 1151 564 1157 566 q 1139 561 1146 561 q 1114 570 1124 561 q 1105 596 1105 581 q 1109 615 1105 607 q 1123 629 1113 623 q 1145 633 1133 633 q 1171 628 1160 633 q 1185 610 1180 622 q 1192 579 1192 598 q 1179 537 1192 550 q 1146 524 1167 524 q 1127 526 1133 524 q 1114 534 1120 528 q 1107 549 1109 542 m 1162 597 q 1157 610 1162 605 q 1146 615 1152 615 q 1137 610 1141 615 q 1133 597 1133 606 q 1137 584 1133 588 q 1147 579 1141 579 q 1157 584 1152 579 q 1161 597 1161 588 l 1162 597 m 1206 549 l 1235 553 q 1238 544 1236 546 q 1245 541 1241 541 q 1256 549 1253 541 q 1261 572 1259 555 q 1250 564 1256 566 q 1237 561 1244 561 q 1213 570 1223 561 q 1203 596 1203 581 q 1208 615 1203 606 q 1221 629 1213 624 q 1243 633 1231 633 q 1269 628 1259 633 q 1284 610 1278 623 q 1290 579 1290 597 q 1278 537 1290 550 q 1244 524 1267 524 q 1225 526 1231 524 q 1213 534 1219 528 q 1206 549 1207 542 m 1260 597 q 1255 610 1260 605 q 1244 615 1251 615 q 1236 610 1239 615 q 1232 597 1232 606 q 1235 584 1232 588 q 1245 579 1240 579 q 1255 584 1251 579 q 1259 597 1259 588 l 1260 597 m 1387 608 l 1358 604 q 1354 613 1356 610 q 1347 616 1351 616 q 1336 608 1339 616 q 1332 585 1333 603 q 1342 593 1337 591 q 1355 596 1348 596 q 1379 586 1369 596 q 1390 560 1390 574 q 1384 541 1390 549 q 1371 528 1377 531 q 1348 524 1360 524 q 1323 529 1333 524 q 1308 546 1313 534 q 1302 578 1302 560 q 1314 620 1302 606 q 1348 633 1326 633 q 1367 631 1358 633 q 1379 622 1373 627 q 1387 608 1383 616 m 1333 560 q 1337 547 1333 553 q 1348 542 1341 542 q 1358 546 1354 542 q 1362 559 1362 550 q 1358 573 1362 568 q 1348 578 1353 578 q 1337 573 1341 578 q 1333 560 1333 566 l 1333 560 m 105 467 l 134 467 l 134 429 q 144 437 138 434 q 157 439 151 439 q 180 429 170 439 q 190 399 190 418 q 186 378 190 387 q 174 363 181 368 q 157 359 167 359 q 143 361 151 359 q 132 372 136 365 l 132 360 l 105 360 l 105 467 m 134 399 q 138 384 134 389 q 147 380 143 380 q 157 384 151 380 q 160 399 160 389 q 157 412 160 409 q 148 417 152 417 q 138 412 142 417 q 134 399 134 408 l 134 399 m 196 437 l 227 437 l 242 386 l 257 437 l 286 437 l 256 355 q 245 336 250 341 q 221 330 237 330 q 201 330 210 330 l 199 351 q 214 349 205 349 q 222 351 220 349 q 228 360 225 353 l 196 437 m 416 404 l 444 395 q 435 375 441 383 q 420 363 427 365 q 396 359 410 359 q 368 363 378 359 q 349 380 356 368 q 341 414 341 393 q 355 454 341 439 q 395 469 369 469 q 426 460 414 469 q 444 435 437 452 l 414 429 q 410 436 412 435 q 404 441 407 440 q 395 444 400 444 q 378 434 383 444 q 374 414 374 428 q 380 390 374 395 q 395 383 385 383 q 409 388 403 383 q 416 404 414 395 m 538 360 l 511 360 l 511 372 q 498 361 505 364 q 484 359 490 359 q 465 366 471 359 q 458 388 458 373 l 458 437 l 487 437 l 487 395 q 490 385 487 389 q 497 382 494 382 q 506 386 503 382 q 509 400 509 389 l 509 437 l 538 437 l 538 360 m 556 437 l 583 437 l 583 425 q 591 436 587 433 q 602 439 595 439 q 616 435 608 439 l 608 414 q 599 416 600 416 q 590 411 593 416 q 586 386 586 405 l 586 360 l 556 360 l 556 437 m 665 467 l 665 437 l 681 437 l 681 416 l 665 416 l 665 387 q 666 380 665 381 q 671 378 667 378 q 680 380 670 378 l 683 361 q 662 359 671 359 q 646 361 650 359 q 638 370 640 363 q 636 389 636 376 l 636 416 l 625 416 l 625 437 l 636 437 l 636 451 l 665 467 m 696 467 l 726 467 l 726 446 l 696 446 l 696 467 m 696 437 l 726 437 l 726 360 l 696 360 l 696 437 m 739 382 l 768 384 q 773 376 769 380 q 782 374 779 374 q 791 376 785 374 q 794 382 794 378 q 791 387 794 385 q 778 389 785 389 q 757 395 763 392 q 747 402 751 396 q 743 415 743 407 q 747 428 743 422 q 759 436 751 433 q 779 439 766 439 q 800 437 791 439 q 810 431 806 434 q 818 419 816 425 l 791 416 q 787 421 785 422 q 779 423 783 423 q 772 422 774 423 q 769 417 769 419 q 772 412 769 415 q 784 410 774 411 q 806 406 800 408 q 817 397 812 402 q 821 385 821 391 q 817 372 821 378 q 804 362 812 365 q 781 359 794 359 q 750 364 760 359 q 739 382 741 370 m 956 404 l 985 395 q 976 375 983 387 q 960 363 968 366 q 937 359 951 359 q 909 363 918 359 q 890 380 899 367 q 882 414 882 393 q 896 454 882 439 q 935 469 909 469 q 966 460 955 469 q 984 435 979 451 l 955 429 q 951 436 952 435 q 945 441 947 440 q 936 444 941 444 q 919 434 924 444 q 915 414 915 428 q 920 390 915 395 q 935 383 926 383 q 949 388 943 383 q 956 404 954 393 m 1000 467 l 1029 467 l 1029 360 l 1000 360 l 1000 467 m 1076 412 l 1047 415 q 1051 427 1048 422 q 1060 434 1053 431 q 1071 438 1064 436 q 1086 439 1080 439 q 1107 438 1097 439 q 1120 431 1112 437 q 1126 422 1124 428 q 1128 410 1128 416 l 1128 376 q 1129 371 1128 374 q 1129 368 1129 369 q 1132 360 1129 366 l 1104 360 q 1102 364 1102 366 q 1101 369 1101 366 q 1089 361 1095 363 q 1072 359 1080 359 q 1051 365 1058 359 q 1044 380 1044 372 q 1049 395 1044 390 q 1068 404 1054 400 q 1088 408 1075 405 q 1099 412 1093 409 q 1097 419 1099 417 q 1089 422 1095 422 q 1080 419 1084 422 q 1076 412 1076 417 m 1099 397 q 1087 393 1087 393 q 1076 388 1077 389 q 1074 382 1074 386 q 1076 376 1074 378 q 1082 374 1080 374 q 1091 376 1083 374 q 1097 382 1096 378 q 1099 392 1099 385 l 1099 397 m 1146 437 l 1173 437 l 1173 425 q 1181 436 1177 433 q 1192 439 1185 439 q 1206 435 1197 439 l 1197 414 q 1189 416 1190 416 q 1180 411 1183 416 q 1175 386 1175 404 l 1175 360 l 1146 360 l 1146 437 m 1217 467 l 1246 467 l 1246 412 l 1268 437 l 1305 437 l 1277 410 l 1306 360 l 1273 360 l 1257 391 l 1246 380 l 1246 360 l 1217 360 l 1217 467 m 399 302 l 479 302 l 479 279 l 431 279 l 431 260 l 472 260 l 472 239 l 431 239 l 431 195 l 399 195 l 399 302 m 490 273 l 517 273 l 517 260 q 526 271 522 268 q 536 274 531 274 q 551 270 543 274 l 541 249 q 533 251 536 251 q 524 246 526 251 q 519 221 519 239 l 519 195 l 490 195 l 490 273 m 644 227 l 584 227 q 587 215 584 222 q 598 210 592 210 q 607 212 599 210 q 612 218 609 213 l 642 215 q 625 199 633 201 q 598 193 615 193 q 574 197 583 193 q 560 212 565 202 q 555 233 555 221 q 566 262 555 252 q 597 274 576 274 q 623 269 614 274 q 638 255 633 263 q 644 229 644 244 l 644 227 m 614 241 q 609 253 612 250 q 599 256 604 256 q 587 251 591 256 q 584 241 584 245 l 614 241 m 742 227 l 682 227 q 686 215 682 222 q 697 210 690 210 q 705 212 697 210 q 711 218 709 214 l 740 215 q 724 199 733 202 q 697 193 713 193 q 673 197 682 193 q 659 212 664 201 q 653 233 653 220 q 664 262 653 252 q 696 274 674 274 q 722 269 713 274 q 736 255 731 264 q 742 229 742 244 l 742 227 m 713 241 q 707 253 710 250 q 698 256 704 256 q 686 251 689 256 q 682 241 682 245 l 713 241 m 837 273 l 851 273 l 851 251 l 837 251 l 837 195 l 808 195 l 808 251 l 798 251 l 798 273 l 808 273 l 808 275 q 809 286 808 279 q 812 295 809 292 q 821 301 814 298 q 835 303 825 303 q 857 301 843 303 l 854 284 q 849 284 851 284 q 846 285 846 285 q 840 283 842 285 q 837 279 838 282 q 837 276 837 278 q 837 273 837 275 m 856 233 q 867 262 856 251 q 899 274 879 274 q 934 260 922 274 q 943 234 943 250 q 932 205 943 216 q 899 193 920 193 q 869 203 881 193 q 856 233 856 214 m 885 234 q 889 218 885 223 q 900 213 893 213 q 910 218 905 213 q 914 234 914 222 q 910 250 914 244 q 900 255 905 255 q 890 250 892 255 q 885 234 885 242 m 958 273 l 985 273 l 985 260 q 993 271 989 268 q 1004 274 998 274 q 1018 270 1010 274 l 1008 249 q 1000 251 1003 251 q 991 246 994 251 q 987 221 987 240 l 987 195 l 958 195 l 958 273 m 192 1 l 192 108 l 219 108 l 219 96 q 229 106 223 101 q 243 109 236 109 q 267 97 259 109 q 276 68 276 86 q 267 39 276 47 q 243 28 257 28 q 231 31 237 28 q 221 37 226 32 l 221 1 l 192 1 m 221 69 q 224 55 221 58 q 235 51 229 51 q 243 55 240 51 q 247 69 247 59 q 243 83 247 79 q 234 88 239 88 q 224 83 228 88 q 220 69 220 79 l 221 69 m 376 62 l 316 62 q 319 50 316 55 q 331 45 324 45 q 339 47 335 45 q 345 52 340 48 l 374 50 q 357 33 366 37 q 331 28 347 28 q 307 33 315 28 q 292 46 298 36 q 287 68 287 56 q 298 98 287 87 q 330 109 309 109 q 355 104 347 109 q 370 90 366 98 q 376 64 376 79 l 376 62 m 346 77 q 341 88 345 83 q 331 92 336 92 q 319 86 323 92 q 316 77 316 81 l 346 77 m 389 108 l 416 108 l 416 94 q 424 106 420 104 q 435 109 428 109 q 449 105 441 109 l 439 84 q 431 86 434 86 q 422 81 424 86 q 418 56 418 73 l 418 31 l 389 31 l 389 108 m 452 52 l 482 54 q 487 47 483 49 q 496 45 489 45 q 505 47 501 45 q 508 52 508 48 q 504 56 508 55 q 491 60 501 58 q 471 64 473 63 q 460 72 463 66 q 456 85 456 77 q 460 98 456 92 q 472 106 464 103 q 493 109 481 109 q 513 107 507 109 q 524 100 519 105 q 532 89 528 96 l 504 86 q 500 91 503 90 q 492 94 497 94 q 485 92 489 94 q 483 87 483 90 q 486 83 483 83 q 497 80 489 81 q 519 75 510 79 q 530 67 525 73 q 534 55 534 62 q 530 42 534 48 q 517 32 526 36 q 494 28 507 28 q 464 35 472 28 q 452 52 454 41 m 545 68 q 556 98 545 86 q 588 109 568 109 q 623 96 611 109 q 632 69 632 83 q 621 40 632 52 q 588 28 609 28 q 558 38 570 28 q 545 68 545 49 m 574 69 q 578 54 574 58 q 589 48 582 48 q 598 53 594 48 q 603 69 603 58 q 599 85 603 79 q 589 90 595 90 q 578 85 581 90 q 574 69 574 79 m 646 108 l 673 108 l 673 94 q 686 106 679 102 q 701 109 692 109 q 720 102 712 109 q 727 79 727 93 l 727 31 l 698 31 l 698 73 q 695 83 698 81 q 688 86 692 86 q 679 82 682 86 q 675 67 675 77 l 675 31 l 646 31 l 646 108 m 772 83 l 744 85 q 748 97 745 93 q 757 104 751 100 q 768 108 762 106 q 783 109 777 109 q 804 108 794 109 q 817 101 811 106 q 823 92 821 99 q 825 81 825 86 l 825 47 q 826 41 825 44 q 826 38 826 39 q 829 31 827 36 l 801 31 q 799 35 799 35 q 798 36 799 35 q 798 39 798 37 q 787 32 792 34 q 769 28 779 28 q 749 35 755 28 q 741 50 741 41 q 746 65 741 59 q 765 73 751 70 q 786 78 773 75 q 796 82 786 78 q 794 90 796 87 q 787 92 792 92 q 777 89 779 92 q 772 83 773 87 m 796 66 q 790 64 793 65 q 784 62 787 63 q 773 58 776 60 q 770 52 770 55 q 773 47 770 50 q 779 45 775 45 q 788 47 785 45 q 795 52 793 49 q 796 62 796 58 l 796 66 m 844 137 l 873 137 l 873 31 l 844 31 l 844 137 m 1023 31 l 995 31 l 995 43 q 983 32 988 33 q 968 28 976 28 q 949 36 955 28 q 942 58 942 41 l 942 108 l 971 108 l 971 65 q 974 55 971 56 q 981 52 977 52 q 989 56 986 52 q 994 71 994 60 l 994 108 l 1023 108 l 1023 31 m 1035 52 l 1064 54 q 1069 47 1065 50 q 1078 45 1072 45 q 1087 47 1084 45 q 1090 52 1090 47 q 1086 56 1090 55 q 1074 60 1082 58 q 1053 64 1055 64 q 1042 72 1046 66 q 1038 85 1038 77 q 1042 98 1038 92 q 1055 106 1047 103 q 1076 109 1063 109 q 1095 107 1089 109 q 1106 100 1102 104 q 1114 89 1112 94 l 1086 86 q 1082 91 1085 90 q 1074 94 1078 94 q 1067 92 1072 94 q 1065 87 1065 90 q 1068 83 1065 83 q 1080 80 1072 81 q 1101 75 1094 79 q 1112 67 1108 73 q 1116 55 1116 63 q 1112 42 1116 47 q 1100 32 1109 37 q 1076 28 1090 28 q 1046 35 1055 28 q 1035 52 1037 41 m 1215 62 l 1156 62 q 1160 50 1156 54 q 1171 45 1164 45 q 1179 47 1175 45 q 1185 52 1181 48 l 1214 50 q 1198 33 1206 38 q 1171 28 1187 28 q 1147 33 1155 28 q 1133 46 1137 36 q 1127 68 1127 56 q 1138 98 1127 87 q 1170 109 1149 109 q 1196 104 1187 109 q 1210 90 1206 98 q 1215 64 1215 81 l 1215 62 m 1186 77 q 1181 88 1185 83 q 1171 92 1177 92 q 1160 86 1164 92 q 1156 77 1156 83 l 1186 77 z "},"Z":{"ha":1068,"x_min":7,"x_max":985,"o":"m 530 519 l 939 109 l 985 0 l 892 47 l 530 409 l 530 100 l 490 0 l 450 100 l 450 409 l 102 47 l 7 0 l 54 109 l 450 519 l 450 1284 l 490 1384 l 530 1284 l 530 519 z "},"A":{"ha":519,"x_min":6,"x_max":462,"o":"m 462 1288 q 461 658 462 878 q 461 321 461 438 q 461 145 461 203 q 461 0 461 87 l 52 423 l 6 522 l 97 483 l 383 179 l 383 469 l 52 817 l 6 916 l 97 877 l 383 574 l 383 1288 l 422 1385 l 462 1288 z "},"B":{"ha":458,"x_min":-1,"x_max":405,"o":"m 405 1382 l 405 0 l -1 399 l 283 690 l -1 982 l 405 1382 m 104 982 l 326 753 l 326 1211 l 104 982 m 104 400 l 326 171 l 326 629 l 104 400 z "},"E":{"ha":880,"x_min":5,"x_max":806,"o":"m 406 400 l 5 0 l 6 1290 l 45 1386 l 84 1290 l 84 184 l 406 512 l 727 183 l 727 1290 l 766 1386 l 805 1290 l 806 1 l 406 400 z "},"Y":{"ha":977,"x_min":7,"x_max":898,"o":"m 422 172 l 422 1384 l 887 927 l 898 853 l 835 875 l 496 1214 l 497 0 l 32 458 l 7 530 l 78 514 l 422 172 z "},"F":{"ha":837,"x_min":5,"x_max":765,"o":"m 765 1276 q 765 971 765 1069 q 764 841 764 873 q 764 821 764 808 q 764 846 764 833 q 764 851 764 859 q 764 772 764 844 q 764 542 764 700 q 764 98 764 385 l 724 -1 l 684 98 l 684 323 l 427 52 l 327 5 l 381 120 l 684 437 l 684 645 l 106 52 l 5 5 l 59 120 l 684 759 l 684 1276 l 724 1376 l 765 1276 z "},"H":{"ha":761,"x_min":6,"x_max":692,"o":"m 6 100 l 6 1284 l 46 1384 l 87 1284 l 86 1025 l 612 471 l 612 1284 l 652 1384 l 692 1284 l 692 100 l 652 0 l 612 100 l 612 357 l 86 910 l 86 100 l 46 0 l 6 100 z "},"Q":{"ha":1067,"x_min":5,"x_max":985,"o":"m 985 691 l 495 201 l 5 691 l 495 1181 l 985 691 m 879 690 l 495 1075 l 111 690 l 495 307 l 879 690 z "},"J":{"ha":1054,"x_min":-7,"x_max":972,"o":"m 972 487 l 530 45 l 429 -2 l 469 92 l 864 487 l 469 882 l 428 976 l 529 929 l 972 487 m -7 894 l 434 1336 l 536 1383 l 495 1289 l 100 894 l 495 498 l 535 404 l 434 452 l -7 894 z "},"K":{"ha":610,"x_min":7,"x_max":550,"o":"m 550 692 l 108 250 l 7 203 l 47 297 l 442 692 l 47 1088 l 7 1181 l 108 1135 l 550 692 z "},"C":{"ha":610,"x_min":7,"x_max":550,"o":"m 550 692 l 108 250 l 7 203 l 47 297 l 442 692 l 47 1088 l 7 1181 l 108 1135 l 550 692 z "},"L":{"ha":589,"x_min":6,"x_max":529,"o":"m 58 472 l 6 570 l 108 532 l 451 185 l 451 1290 l 490 1387 l 529 1290 l 529 0 l 58 472 z "},"M":{"ha":875,"x_min":8,"x_max":801,"o":"m 721 713 l 457 449 l 721 185 l 721 713 m 721 826 l 721 1278 l 761 1377 l 801 1278 q 800 640 801 958 q 801 3 800 321 q 602 198 704 102 q 400 393 499 293 l 8 3 q 8 640 8 321 q 8 1278 8 958 l 48 1377 l 88 1278 l 88 818 l 400 506 l 721 826 m 343 449 l 88 705 l 88 194 l 343 449 z "},"N":{"ha":718,"x_min":7,"x_max":652,"o":"m 370 594 l 370 99 l 330 -1 l 290 99 l 290 674 l 50 914 l 7 1013 l 106 971 l 290 787 l 290 1283 l 330 1383 l 370 1283 l 370 707 l 610 467 l 652 369 l 553 411 l 370 594 z "},"O":{"ha":1072,"x_min":10,"x_max":989,"o":"m 556 893 l 974 475 l 556 57 l 499 0 l 24 475 l 442 893 l 52 1283 l 10 1382 l 109 1340 l 499 949 l 890 1340 l 989 1382 l 947 1283 l 556 893 m 138 475 l 500 114 l 861 475 l 499 836 l 138 475 z "},"P":{"ha":671,"x_min":5,"x_max":608,"o":"m 331 1106 l 608 1384 l 608 0 l 331 279 l 100 47 l 5 0 l 53 109 l 331 387 l 527 191 l 527 1187 l 331 991 l 53 1276 l 5 1384 l 100 1337 l 331 1106 z "},"R":{"ha":581,"x_min":5,"x_max":522,"o":"m 444 816 l 444 1297 l 482 1394 l 522 1297 l 522 0 l 113 404 l 431 724 l 58 1100 l 5 1198 l 110 1152 l 444 816 m 217 404 l 444 176 l 444 632 l 217 404 z "},"S":{"ha":640,"x_min":6,"x_max":577,"o":"m 31 897 l 478 1342 l 577 1384 l 535 1285 l 146 896 l 552 490 l 105 42 l 6 0 l 48 99 l 438 489 l 31 897 z "},"T":{"ha":1069,"x_min":8,"x_max":987,"o":"m 498 0 l 56 442 l 8 536 l 109 503 l 457 148 l 457 1284 l 498 1384 l 538 1284 l 538 148 l 886 503 l 987 536 l 940 442 l 498 0 l 498 0 z "},"U":{"ha":623,"x_min":6,"x_max":561,"o":"m 559 0 l 6 561 l 6 1289 l 45 1384 l 83 1289 l 83 594 l 484 188 l 484 1289 l 522 1384 l 561 1289 l 559 0 z "},"V":{"ha":467,"x_min":6,"x_max":413,"o":"m 413 0 l 6 410 l 336 747 l 336 1295 l 374 1390 l 413 1295 l 413 0 m 112 410 l 336 182 l 336 637 l 112 410 z "},"W":{"ha":467,"x_min":6,"x_max":413,"o":"m 413 0 l 6 410 l 336 747 l 336 1295 l 374 1390 l 413 1295 l 413 0 m 112 410 l 336 182 l 336 637 l 112 410 z "},"X":{"ha":450,"x_min":6,"x_max":397,"o":"m 397 1284 q 397 1057 397 1227 q 397 692 397 886 q 397 327 397 498 q 397 100 397 156 l 363 0 l 317 100 l 317 381 l 6 692 l 317 1002 l 317 1284 l 363 1384 l 397 1284 m 114 692 l 317 489 l 317 895 l 114 692 z "},";":{"ha":142,"x_min":8,"x_max":102,"o":"m 8 50 l 55 96 l 102 50 l 31 -85 l 49 24 l 8 50 m 8 292 l 55 339 l 102 292 l 55 245 l 8 292 z "}}}
